<svg width="90" height="90" viewBox="0 0 90 90" fill="none" xmlns="http://www.w3.org/2000/svg">
<path d="M80.6232 77.5647H9.37676C8.96657 77.5636 8.57356 77.3998 8.28391 77.1094C7.99426 76.819 7.8316 76.4255 7.8316 76.0153V71.3693C7.83396 71.0991 7.90692 70.8342 8.04327 70.6009L20.4214 48.9179C20.557 48.6806 20.7529 48.4833 20.9894 48.3461C21.2258 48.209 21.4943 48.1368 21.7676 48.1369H35.7058V51.2336H22.6651L10.924 71.7799V74.468H79.0802V71.8243L65.8448 51.2336H54.2921V48.1369H66.6745C66.934 48.1368 67.1894 48.2018 67.4172 48.3261C67.645 48.4504 67.838 48.6298 67.9784 48.8481L81.9186 70.5332C82.0784 70.7828 82.1636 71.0729 82.1641 71.3693V76.0153C82.1642 76.4248 82.0021 76.8176 81.7133 77.1079C81.4246 77.3982 81.0327 77.5625 80.6232 77.5647Z" fill="#374612"/>
<path d="M45.0276 38.8426C44 38.8619 42.9789 38.6766 42.0237 38.2973C41.0686 37.918 40.1984 37.3524 39.464 36.6335C38.7296 35.9146 38.1457 35.0566 37.7462 34.1097C37.3467 33.1629 37.1396 32.1459 37.1371 31.1182C37.1346 30.0905 37.3366 29.0725 37.7315 28.1237C38.1263 27.1749 38.706 26.3141 39.4369 25.5915C40.1677 24.869 41.0351 24.2991 41.9884 23.9152C42.9417 23.5312 43.9619 23.3408 44.9895 23.3551C46.0171 23.3364 47.0381 23.5224 47.9931 23.9022C48.9481 24.2821 49.818 24.8483 50.5519 25.5677C51.2859 26.2872 51.8693 27.1455 52.2682 28.0927C52.6671 29.0399 52.8735 30.0571 52.8753 31.0849C52.8772 32.1126 52.6744 33.1305 52.2789 34.0791C51.8834 35.0277 51.303 35.8881 50.5716 36.6102C49.8401 37.3322 48.9723 37.9015 48.0187 38.2848C47.065 38.668 46.0447 38.8577 45.017 38.8426H45.0276ZM44.9895 26.4581C44.3766 26.4451 43.7675 26.5563 43.1988 26.785C42.6301 27.0138 42.1136 27.3553 41.6804 27.7891C41.2473 28.2228 40.9065 28.7398 40.6785 29.3088C40.4505 29.8778 40.3401 30.4871 40.354 31.0999C40.311 31.7364 40.3993 32.3749 40.6133 32.9759C40.8273 33.5769 41.1626 34.1275 41.5982 34.5935C42.0338 35.0596 42.5606 35.4312 43.1458 35.6852C43.731 35.9392 44.3621 36.0703 45.0001 36.0703C45.638 36.0703 46.2692 35.9392 46.8543 35.6852C47.4395 35.4312 47.9663 35.0596 48.4019 34.5935C48.8376 34.1275 49.1728 33.5769 49.3868 32.9759C49.6008 32.3749 49.6891 31.7364 49.6461 31.0999C49.6597 30.487 49.549 29.8776 49.3208 29.3086C49.0926 28.7396 48.7516 28.2227 48.3183 27.7889C47.885 27.3552 47.3683 27.0137 46.7995 26.785C46.2307 26.5563 45.6215 26.4451 45.0085 26.4581H44.9895Z" fill="#374612"/>
<path d="M46.2763 63.0339C46.1336 63.2404 45.9429 63.4092 45.7206 63.5257C45.4983 63.6423 45.251 63.7032 44.9999 63.7032C44.7489 63.7032 44.5016 63.6423 44.2793 63.5257C44.057 63.4092 43.8663 63.2404 43.7236 63.0339C43.2431 62.3354 31.9402 45.9123 29.6542 42.2505C27.0296 38.0531 26.5195 34.912 26.5258 30.9073C26.5258 26.0077 28.4722 21.3087 31.9368 17.8442C35.4013 14.3796 40.1003 12.4332 44.9999 12.4332C49.8996 12.4332 54.5986 14.3796 58.0631 17.8442C61.5277 21.3087 63.4741 26.0077 63.4741 30.9073C63.4741 34.912 62.9703 38.051 60.3457 42.2505C58.0576 45.9102 46.7547 62.3332 46.2763 63.0317V63.0339ZM45.0063 15.532C40.9311 15.5376 37.0245 17.1588 34.1427 20.0401C31.2609 22.9215 29.6392 26.8279 29.6331 30.9031C29.6331 34.9671 30.2977 37.4139 32.2916 40.6037C34.0484 43.4167 41.5202 54.3302 44.7798 59.063C44.8066 59.1023 44.8426 59.1345 44.8847 59.1567C44.9267 59.1789 44.9736 59.1905 45.0211 59.1905C45.0687 59.1905 45.1155 59.1789 45.1576 59.1567C45.1996 59.1345 45.2356 59.1023 45.2624 59.063C48.5094 54.3302 55.9811 43.4167 57.7401 40.6037C59.7318 37.416 60.4028 34.9692 60.3965 30.9052C60.3909 26.8257 58.7662 22.9152 55.8793 20.0327C52.9925 17.1502 49.0795 15.5314 44.9999 15.532H45.0063Z" fill="#374612"/>
</svg>
