<svg width="90" height="90" viewBox="0 0 90 90" fill="none" xmlns="http://www.w3.org/2000/svg">
<path d="M59.736 18.1736H65.7431V33.3309L59.736 27.779V18.1736ZM45.7894 63.5271C45.11 59.9436 45.6815 55.3187 47.5018 49.699C47.583 49.3854 47.5413 49.0527 47.3853 48.7689C47.2293 48.485 46.9707 48.2715 46.6625 48.172C46.3543 48.0725 46.0197 48.0945 45.7271 48.2336C45.4346 48.3726 45.2063 48.6182 45.0888 48.9201C43.2981 54.4382 42.6526 59.1414 43.1436 62.9916C42.8515 62.8984 42.5615 62.7926 42.2694 62.6741C38.2605 61.0527 34.4653 58.4302 36.7365 51.2759C38.6415 45.2498 47.1568 39.0205 50.391 36.8276C51.8917 40.608 55.6827 51.2103 53.765 57.2724C52.495 61.294 49.9825 63.8509 45.7894 63.5271ZM68.317 16.8634C68.3103 16.5228 68.1697 16.1985 67.9257 15.9608C67.6816 15.7231 67.3538 15.5911 67.0131 15.5934H58.5465C57.8459 15.5934 57.1537 16.1564 57.1537 16.8634V25.4633L45.8508 15.0918C45.6166 14.877 45.3103 14.7578 44.9925 14.7578C44.6747 14.7578 44.3684 14.877 44.1342 15.0918L11.2711 45.2392C11.1378 45.3489 11.0282 45.4846 10.9491 45.6381C10.87 45.7916 10.823 45.9596 10.811 46.1318C10.7991 46.3041 10.8223 46.4769 10.8794 46.6399C10.9365 46.8028 11.0263 46.9524 11.1431 47.0795C11.26 47.2066 11.4015 47.3086 11.5591 47.3791C11.7167 47.4496 11.887 47.4873 12.0597 47.4898C12.2323 47.4923 12.4037 47.4595 12.5632 47.3936C12.7228 47.3276 12.8672 47.2298 12.9877 47.1061L21.7019 39.1157V73.5177C21.7177 73.8625 21.8658 74.1879 22.1153 74.4264C22.3648 74.6649 22.6966 74.7981 23.0418 74.7982H37.8393C38.1806 74.7982 38.5079 74.6627 38.7493 74.4213C38.9906 74.18 39.1262 73.8526 39.1262 73.5113C39.1262 73.17 38.9906 72.8427 38.7493 72.6013C38.5079 72.36 38.1806 72.2244 37.8393 72.2244H24.2758V36.7557L44.9999 17.7524L65.7431 36.7705V72.1546C62.5956 72.707 53.0559 73.9283 48.3082 68.7954C47.5792 67.9984 46.9902 67.0838 46.5662 66.0903C49.2629 66.0607 53.9936 64.9537 56.1885 58.0471C58.8407 49.699 52.4145 35.0412 52.1394 34.421C52.066 34.2554 51.958 34.1073 51.8227 33.9869C51.6874 33.8664 51.5279 33.7763 51.3549 33.7225C51.1819 33.6688 50.9993 33.6527 50.8196 33.6754C50.6398 33.698 50.467 33.7588 50.3127 33.8537C49.7687 34.1903 36.9778 42.1785 34.3235 50.5181C31.0343 60.8728 38.7791 64.0054 41.3212 65.0341C42.1067 65.3536 42.9183 65.6049 43.7469 65.7855C44.2825 67.5478 45.2069 69.1674 46.4519 70.5247C49.9656 74.3347 55.4033 75.2449 59.8503 75.2449C62.3649 75.2436 64.872 74.9718 67.3285 74.4342C67.608 74.3697 67.8578 74.2132 68.0378 73.9899C68.2178 73.7665 68.3176 73.4891 68.3212 73.2023V39.1327L77.0164 47.1061C77.1365 47.2316 77.281 47.3311 77.4411 47.3985C77.6011 47.4659 77.7733 47.4997 77.947 47.4979C78.1206 47.4961 78.2921 47.4587 78.4507 47.3881C78.6093 47.3174 78.7518 47.2149 78.8693 47.087C78.9867 46.9591 79.0767 46.8085 79.1337 46.6444C79.1906 46.4803 79.2133 46.3063 79.2003 46.1331C79.1874 45.96 79.139 45.7913 79.0583 45.6375C78.9775 45.4838 78.8661 45.3482 78.7309 45.2392L68.3212 35.89V16.8634H68.317Z" fill="#374612"/>
<path d="M59.846 75.6598C55.6402 75.6598 49.847 74.8131 46.1365 70.8042C44.9068 69.4643 43.9786 67.8764 43.4145 66.1476C42.6455 65.9642 41.8913 65.7236 41.1581 65.4279C39.8754 64.9072 37.2127 63.8298 35.3034 61.5417C32.9328 58.7033 32.4671 54.9505 33.9149 50.3891C36.5967 41.9436 49.5358 33.8347 50.084 33.494C50.2898 33.3669 50.5204 33.2853 50.7604 33.2548C51.0003 33.2243 51.244 33.2456 51.4751 33.3172C51.7061 33.3888 51.9191 33.5091 52.0998 33.6699C52.2804 33.8307 52.4246 34.0284 52.5224 34.2496C52.7997 34.8846 59.2851 49.6885 56.5885 58.1678C54.4718 64.8268 50.0544 66.283 47.2181 66.4862C47.5903 67.2211 48.0618 67.9012 48.6193 68.5076C52.95 73.1918 61.4864 72.4298 65.3197 71.799V36.9568L44.9998 18.3303L24.699 36.9441V71.8011H37.8392C38.2928 71.8011 38.7278 71.9813 39.0485 72.302C39.3693 72.6228 39.5495 73.0578 39.5495 73.5114C39.5495 73.965 39.3693 74.4 39.0485 74.7207C38.7278 75.0415 38.2928 75.2216 37.8392 75.2216H23.0417C22.5837 75.2235 22.143 75.0464 21.8137 74.7281C21.4843 74.4099 21.2923 73.9755 21.2785 73.5177V40.0746L13.2733 47.4131C13.1134 47.5807 12.9208 47.7136 12.7075 47.8038C12.4941 47.894 12.2645 47.9394 12.0329 47.9373C11.8012 47.9352 11.5725 47.8856 11.3608 47.7915C11.1491 47.6975 10.959 47.561 10.8021 47.3905C10.6453 47.2201 10.5251 47.0192 10.449 46.8004C10.3729 46.5817 10.3425 46.3496 10.3596 46.1186C10.3768 45.8876 10.4412 45.6625 10.5488 45.4574C10.6564 45.2523 10.8049 45.0714 10.9852 44.926L43.8568 14.7849C44.169 14.4993 44.5767 14.3409 44.9998 14.3409C45.4229 14.3409 45.8307 14.4993 46.1428 14.7849L56.7388 24.5024V16.8634C56.7388 15.9639 57.5854 15.1701 58.5549 15.1701H67.0215C67.2461 15.1676 67.4691 15.2094 67.6776 15.2932C67.8861 15.377 68.076 15.5011 68.2364 15.6584C68.3968 15.8157 68.5247 16.0031 68.6126 16.2099C68.7005 16.4167 68.7467 16.6388 68.7486 16.8634V35.7016L79.0186 44.9239C79.1925 45.0715 79.3347 45.2528 79.4368 45.4568C79.5389 45.6608 79.5987 45.8833 79.6127 46.1109C79.6266 46.3386 79.5945 46.5667 79.5181 46.7817C79.4417 46.9966 79.3226 47.1939 79.1681 47.3617C79.0136 47.5295 78.8268 47.6643 78.6189 47.7581C78.4109 47.8519 78.1862 47.9027 77.9582 47.9075C77.7301 47.9123 77.5034 47.871 77.2918 47.786C77.0801 47.7011 76.8877 47.5742 76.7263 47.4131L68.7402 40.0916V73.1939C68.7353 73.5758 68.6029 73.9452 68.3639 74.2432C68.125 74.5412 67.7933 74.7507 67.4215 74.8385C64.933 75.3824 62.3933 75.6577 59.846 75.6598ZM50.9751 34.0782C50.8183 34.0778 50.6644 34.121 50.5306 34.203C49.993 34.5375 37.31 42.4855 34.7214 50.6346C31.5464 60.6125 39.0182 63.6372 41.4714 64.6299C42.236 64.9402 43.0255 65.1852 43.8314 65.3623L44.0727 65.4131L44.1468 65.648C44.6654 67.3503 45.5578 68.9153 46.7588 70.2285C50.2618 74.0151 55.8096 74.811 59.846 74.811C62.327 74.8101 64.8008 74.5426 67.2247 74.013C67.4119 73.9705 67.5794 73.8665 67.7007 73.7177C67.8219 73.5688 67.8898 73.3837 67.8935 73.1918V38.1697L77.2999 46.795C77.4654 46.9459 77.684 47.025 77.9077 47.0151C78.1315 47.0052 78.3422 46.907 78.4937 46.7421C78.6433 46.5768 78.7216 46.3591 78.7117 46.1364C78.7018 45.9137 78.6044 45.7039 78.4408 45.5525L67.8935 36.0784V16.8634C67.8863 16.6353 67.7902 16.419 67.6257 16.2608C67.4611 16.1026 67.2412 16.015 67.013 16.0168H58.5464C58.049 16.0168 57.577 16.4253 57.577 16.8634V26.4265L45.5713 15.4072C45.4152 15.2644 45.2114 15.1852 44.9998 15.1852C44.7883 15.1852 44.5844 15.2644 44.4283 15.4072L11.5567 45.5504C11.4743 45.6262 11.4077 45.7177 11.3608 45.8194C11.314 45.9211 11.2877 46.0311 11.2837 46.1431C11.2774 46.31 11.3206 46.4751 11.4079 46.6175C11.4951 46.7599 11.6226 46.8734 11.7742 46.9435C11.9258 47.0137 12.0948 47.0374 12.2599 47.0117C12.4249 46.986 12.5787 46.9121 12.7018 46.7992L22.1252 38.157V73.5177C22.1417 73.7498 22.2453 73.9671 22.4153 74.1261C22.5853 74.2851 22.809 74.374 23.0417 74.375H37.8392C38.0682 74.375 38.2879 74.284 38.4499 74.122C38.6118 73.9601 38.7028 73.7404 38.7028 73.5114C38.7028 73.2823 38.6118 73.0627 38.4499 72.9007C38.2879 72.7388 38.0682 72.6478 37.8392 72.6478H23.8524V36.5695L44.9998 17.1788L66.1663 36.5843V72.5102L65.815 72.5716C62.041 73.2341 52.7489 74.2205 47.9991 69.0833C47.2348 68.2492 46.6172 67.2916 46.1725 66.2513L45.9185 65.6671H46.5534C49.0934 65.6396 53.6548 64.596 55.7778 57.9117C58.3771 49.7266 52.0165 35.1979 51.7435 34.584C51.6948 34.4739 51.6232 34.3753 51.5334 34.295C51.4436 34.2147 51.3377 34.1545 51.2228 34.1184C51.1427 34.0928 51.0592 34.0792 50.9751 34.0782ZM46.4815 63.978C46.2444 63.978 46.0031 63.9674 45.7576 63.9505L45.4337 63.9251L45.3745 63.6055C44.6823 59.9606 45.2623 55.2383 47.0995 49.5699C47.1531 49.3611 47.1249 49.1396 47.0208 48.9508C46.9166 48.762 46.7444 48.6201 46.5392 48.5539C46.3339 48.4878 46.1112 48.5024 45.9164 48.5948C45.7216 48.6873 45.5694 48.8505 45.4909 49.0514C43.7298 54.4827 43.0821 59.1562 43.5647 62.9387L43.6494 63.6012L43.0144 63.3896C42.716 63.2922 42.4133 63.1779 42.1106 63.0615C38.1652 61.4655 33.9424 58.6694 36.3321 51.1405C38.2668 45.0488 46.6423 38.8639 50.1539 36.4721L50.5899 36.1758L50.7846 36.6647C52.4504 40.8578 56.1122 51.2696 54.1713 57.3952C52.7997 61.7174 50.1496 63.978 46.4815 63.978ZM46.1471 63.1313C49.6353 63.2689 52.0589 61.2602 53.3627 57.1518C55.1873 51.403 51.6292 41.1965 50.1877 37.4839C46.5365 40.0027 38.9145 45.8044 37.1344 51.4093C34.9733 58.2165 38.4043 60.6612 42.426 62.2889L42.6482 62.3757C42.3011 58.5953 42.9869 54.0318 44.6844 48.7952C44.8362 48.3856 45.1403 48.0505 45.5334 47.8599C45.9264 47.6693 46.3779 47.6379 46.7935 47.7723C47.2091 47.9068 47.5567 48.1966 47.7636 48.5813C47.9705 48.966 48.0208 49.4158 47.9039 49.8366C46.1661 55.1939 45.5756 59.6642 46.1428 63.125L46.1471 63.1313ZM66.1663 34.2898L59.3126 27.9568V17.7503H66.1663V34.2898ZM60.1593 27.5864L65.3197 32.3637V18.6054H60.1593V27.5864Z" fill="#374612"/>
</svg>
