<svg width="91" height="90" viewBox="0 0 91 90" fill="none" xmlns="http://www.w3.org/2000/svg">
<path d="M58.5122 48.5602C54.1227 45.2667 48.9713 44.0941 45.6177 44.0941C42.5765 44.0941 37.485 45.2074 33.1041 48.3443C29.3973 51.0049 24.9714 56.0701 24.9714 65.087C24.9714 68.262 25.7547 70.4294 27.3663 71.6994C30.08 73.833 34.4973 72.8276 38.7712 71.854C41.1254 71.3142 43.5759 70.7575 45.6198 70.7575C48.1473 70.7575 50.7562 71.3735 53.288 71.9683C55.5138 72.4911 57.6668 72.9991 59.5673 72.9991C61.0419 72.9991 62.3623 72.6921 63.441 71.8497C65.2045 70.4739 66.0242 67.9551 66.0242 63.9271C66.022 55.8796 61.9386 51.1277 58.5122 48.5602ZM62.296 70.4189C60.5304 71.7989 57.3736 71.0539 53.7139 70.1945C51.2056 69.604 48.3635 68.9351 45.6177 68.9351C43.3726 68.9351 40.8258 69.5151 38.3625 70.076C34.5102 70.9523 30.538 71.8582 28.5177 70.2707C27.3727 69.3711 26.8056 67.6757 26.8056 65.087C26.8056 58.4661 29.2839 53.329 34.172 49.8217C37.928 47.1251 42.6193 45.9186 45.6027 45.9186C48.6567 45.9186 53.3565 46.9939 57.3736 50.0122C60.4683 52.3405 64.1537 56.6289 64.1537 63.9271C64.1772 67.3095 63.563 69.4262 62.296 70.4189Z" fill="#374612" stroke="#374612" stroke-width="1.5" stroke-miterlimit="10"/>
<path d="M20.1475 37.4774C16.0598 37.4774 12.7318 41.8186 12.7318 47.1526C12.7318 52.4865 16.0512 56.8299 20.1475 56.8299C24.2438 56.8299 27.5653 52.4929 27.5653 47.1526C27.5653 41.8123 24.2374 37.4774 20.1475 37.4774ZM20.1475 55.0054C17.0764 55.0054 14.5831 51.4833 14.5831 47.1526C14.5831 42.8219 17.0828 39.3019 20.1475 39.3019C23.2122 39.3019 25.7119 42.824 25.7119 47.1526C25.7119 51.4811 23.2208 55.0054 20.1475 55.0054Z" fill="#374612" stroke="#374612" stroke-width="1.5" stroke-miterlimit="10"/>
<path d="M70.8503 37.4774C66.7626 37.4774 63.4346 41.8186 63.4346 47.1526C63.4346 52.4865 66.7626 56.8299 70.8503 56.8299C74.938 56.8299 78.2681 52.4887 78.2681 47.1526C78.2681 41.8165 74.9402 37.4774 70.8503 37.4774ZM70.8503 55.0054C67.7791 55.0054 65.2858 51.4833 65.2858 47.1526C65.2858 42.8219 67.7856 39.3019 70.8503 39.3019C73.915 39.3019 76.4147 42.824 76.4147 47.1526C76.4147 51.4811 73.9236 55.0054 70.8503 55.0054Z" fill="#374612" stroke="#374612" stroke-width="1.5" stroke-miterlimit="10"/>
<path d="M34.4761 42.5891C39.8394 42.5891 44.2032 36.8509 44.2032 29.7961C44.2032 22.7413 39.8394 17.0009 34.4761 17.0009C29.1128 17.0009 24.7469 22.7413 24.7469 29.7961C24.7469 36.8509 29.1064 42.5891 34.4761 42.5891ZM34.4761 18.8255C38.8228 18.8255 42.3583 23.7467 42.3583 29.7961C42.3583 35.8455 38.8228 40.7667 34.4761 40.7667C30.1294 40.7667 26.5917 35.8455 26.5917 29.7961C26.5917 23.7467 30.1273 18.8255 34.4761 18.8255Z" fill="#374612" stroke="#374612" stroke-width="1.5" stroke-miterlimit="10"/>
<path d="M56.5239 42.5891C61.8872 42.5891 66.251 36.8509 66.251 29.7961C66.251 22.7413 61.8872 17.0009 56.5239 17.0009C51.1607 17.0009 46.7969 22.7413 46.7969 29.7961C46.7969 36.8509 51.1607 42.5891 56.5239 42.5891ZM56.5239 18.8255C60.8706 18.8255 64.4083 23.7467 64.4083 29.7961C64.4083 35.8455 60.8706 40.7667 56.5239 40.7667C52.1773 40.7667 48.6417 35.8455 48.6417 29.7961C48.6417 23.7467 52.1773 18.8255 56.5239 18.8255Z" fill="#374612" stroke="#374612" stroke-width="1.5" stroke-miterlimit="10"/>
</svg>
