<svg width="90" height="90" viewBox="0 0 90 90" fill="none" xmlns="http://www.w3.org/2000/svg">
<path d="M43.5204 71.3311C37.035 71.3311 33.6759 69.6886 33.5362 69.6187C33.3273 69.5152 33.1449 69.3653 33.0028 69.1806C32.4842 68.5075 20.2881 52.5606 20.2881 38.8066V35.7057C20.2881 35.2948 20.4513 34.9007 20.7419 34.6101C21.0324 34.3196 21.4265 34.1563 21.8374 34.1563H65.2055C65.4089 34.1563 65.6102 34.1964 65.7981 34.2743C65.986 34.3522 66.1566 34.4664 66.3003 34.6103C66.444 34.7542 66.558 34.925 66.6356 35.113C66.7132 35.3009 66.753 35.5024 66.7528 35.7057V38.8045C66.7528 52.5627 54.5587 68.5053 54.0402 69.1784C53.898 69.3632 53.7156 69.5131 53.5068 69.6166C53.3671 69.6864 50.0079 71.3311 43.5204 71.3311ZM35.2189 66.9708C36.091 67.3116 38.8786 68.2408 43.5204 68.2408C48.1622 68.2408 50.9414 67.3243 51.824 66.9708C53.5173 64.689 63.6561 50.499 63.6561 38.8045V37.253H23.3868V38.8024C23.3868 50.499 33.5319 64.6933 35.2189 66.9708Z" fill="#374612"/>
<path d="M59.0081 60.0854C58.6067 60.076 58.2246 59.9111 57.9424 59.6255C57.6602 59.3399 57.4998 58.9559 57.4952 58.5544C57.4905 58.153 57.6419 57.7653 57.9174 57.4733C58.1929 57.1812 58.571 57.0075 58.9721 56.9887C67.153 56.7771 73.105 53.365 74.1358 48.2703C74.4554 46.6891 74.8724 42.9194 71.8477 42.0515C70.4272 41.6246 68.8956 41.7768 67.5869 42.4749C66.7614 42.9363 66.355 43.4972 66.2513 43.8697C66.1294 44.252 65.8639 44.5721 65.5107 44.7626C65.1576 44.9532 64.7443 44.9992 64.3579 44.8912C63.9714 44.7831 63.642 44.5294 63.4389 44.1833C63.2358 43.8372 63.1748 43.4259 63.2689 43.0358C63.6309 41.7383 64.6278 40.5805 66.0756 39.7698C68.1056 38.6724 70.4873 38.4228 72.7007 39.0755C76.4641 40.155 78.1786 43.9142 77.1711 48.8862C75.8439 55.4478 68.7299 59.8483 59.0483 60.0875L59.0081 60.0854Z" fill="#374612"/>
<path d="M43.5205 80.6232C28.1283 80.6232 12.5434 77.4313 12.5434 71.329C12.5434 68.2831 16.1269 65.8659 23.1965 64.1451C23.3978 64.0865 23.609 64.0693 23.8172 64.0947C24.0254 64.1201 24.2262 64.1875 24.4076 64.2928C24.589 64.3981 24.7471 64.5391 24.8723 64.7073C24.9976 64.8756 25.0874 65.0675 25.1363 65.2714C25.1852 65.4753 25.1922 65.6871 25.1569 65.8938C25.1215 66.1005 25.0446 66.2979 24.9307 66.4741C24.8168 66.6502 24.6683 66.8013 24.4943 66.9184C24.3203 67.0354 24.1243 67.1159 23.9182 67.155C17.8477 68.6366 15.6421 70.4633 15.6421 71.3311C15.6421 73.4351 25.4825 77.5266 43.5205 77.5266C61.5586 77.5266 71.4011 73.433 71.4011 71.3311C71.4011 70.4654 69.1934 68.6387 63.1144 67.1571C62.9121 67.1135 62.7206 67.0298 62.5512 66.911C62.3818 66.7922 62.2379 66.6407 62.128 66.4654C62.0181 66.2901 61.9444 66.0945 61.9113 65.8903C61.8782 65.686 61.8864 65.4772 61.9353 65.2762C61.9842 65.0751 62.0729 64.8859 62.1962 64.7197C62.3194 64.5535 62.4747 64.4136 62.6528 64.3084C62.831 64.2032 63.0284 64.1347 63.2335 64.107C63.4385 64.0793 63.6471 64.093 63.8467 64.1472C70.9079 65.8659 74.5062 68.2831 74.5062 71.3311C74.5062 77.4313 58.9149 80.6232 43.5205 80.6232Z" fill="#374612"/>
<path d="M33.6379 31.0598C33.3466 31.0592 33.0615 30.9764 32.8151 30.8211C32.5687 30.6658 32.371 30.4441 32.2449 30.1816C32.1187 29.9191 32.0691 29.6263 32.1017 29.3369C32.1343 29.0474 32.2479 28.7731 32.4293 28.5452C35.2783 24.9765 34.2433 23.5796 32.677 21.4608C30.8884 19.0457 28.4437 15.7331 34.0697 9.85307C34.3569 9.57046 34.7429 9.41085 35.1458 9.40809C35.5487 9.40533 35.9369 9.55964 36.2279 9.83829C36.519 10.1169 36.69 10.498 36.7048 10.9007C36.7195 11.3033 36.5769 11.6959 36.307 11.9951C32.4822 15.9892 33.494 17.3566 35.1683 19.6151C36.8425 21.8735 39.1899 25.0443 34.8508 30.4735C34.7058 30.6562 34.5214 30.8038 34.3114 30.9054C34.1014 31.0069 33.8712 31.0597 33.6379 31.0598Z" fill="#374612"/>
<path d="M43.7065 31.0598C43.3555 31.061 43.0147 30.9414 42.7413 30.7211C42.5821 30.5945 42.4495 30.4376 42.3511 30.2596C42.2527 30.0816 42.1903 29.8859 42.1677 29.6837C42.1451 29.4816 42.1626 29.2769 42.2193 29.0815C42.276 28.8862 42.3707 28.7039 42.4979 28.5452C45.3448 24.9765 44.3119 23.5795 42.7456 21.4608C40.957 19.0457 38.5123 15.7331 44.1362 9.85307C44.4234 9.57046 44.8094 9.41085 45.2123 9.40809C45.6153 9.40533 46.0034 9.55964 46.2944 9.83829C46.5855 10.1169 46.7565 10.498 46.7713 10.9007C46.7861 11.3033 46.6434 11.6959 46.3735 11.9951C42.5445 15.9892 43.5605 17.3566 45.2348 19.6193C46.909 21.882 49.2564 25.0485 44.9173 30.4777C44.7724 30.6597 44.5882 30.8066 44.3786 30.9074C44.1689 31.0082 43.9392 31.0603 43.7065 31.0598Z" fill="#374612"/>
<path d="M53.7734 31.0598C53.4822 31.0592 53.197 30.9764 52.9506 30.8211C52.7042 30.6658 52.5065 30.4441 52.3804 30.1816C52.2542 29.9191 52.2046 29.6263 52.2372 29.3369C52.2698 29.0474 52.3834 28.7731 52.5648 28.5452C55.4138 24.9765 54.3788 23.5796 52.8125 21.4608C51.0239 19.0457 48.5791 15.7331 54.2052 9.85307C54.4924 9.57046 54.8784 9.41085 55.2813 9.40809C55.6843 9.40533 56.0724 9.55964 56.3634 9.83829C56.6545 10.1169 56.8255 10.498 56.8403 10.9007C56.8551 11.3033 56.7124 11.6959 56.4425 11.9951C52.6177 15.9892 53.6274 17.3566 55.3038 19.6151C56.9802 21.8735 59.3254 25.0443 54.9841 30.4735C54.8397 30.6563 54.6557 30.804 54.446 30.9055C54.2364 31.0071 54.0064 31.0598 53.7734 31.0598Z" fill="#374612"/>
</svg>
