<svg width="90" height="90" viewBox="0 0 90 90" fill="none" xmlns="http://www.w3.org/2000/svg">
<path d="M40.9508 84.3824C38.921 84.3824 36.6053 83.7241 36.237 81.9631L36.2222 81.8868L32.5329 57.7147C32.1329 55.8774 32.6938 54.1799 34.0823 53.0475C35.8031 51.642 38.4997 51.3372 40.6439 52.3088C42.5277 53.1554 43.6517 54.8636 43.7321 56.976L45.1735 78.06L46.615 56.976C46.6933 54.8593 47.8194 53.166 49.7011 52.3088C51.841 51.3372 54.5334 51.642 56.2627 53.0475C57.6491 54.1799 58.2121 55.8774 57.8099 57.7147L54.1058 81.9631C53.6507 84.1453 50.2069 84.6343 48.0204 84.2766C46.4224 84.0162 45.5545 83.3198 45.1799 82.5303C44.8031 83.3198 43.9353 84.012 42.3393 84.2766C41.8801 84.3487 41.4157 84.3841 40.9508 84.3824ZM39.0056 81.1672C39.7041 81.5778 41.8186 81.6456 42.5193 81.2836L40.8662 57.0988C40.8302 56.0574 40.356 55.3208 39.4543 54.9123C38.3241 54.3979 36.7599 54.5524 35.8899 55.2615C35.3332 55.7166 35.1512 56.3198 35.3332 57.1305L35.3544 57.2342L39.0056 81.1672ZM47.8109 81.2836C48.5115 81.6456 50.6239 81.5778 51.3224 81.1672L54.9948 57.1305C55.1789 56.3283 54.9948 55.7166 54.4381 55.2615C53.5703 54.5524 52.004 54.3979 50.8758 54.9123C49.9741 55.3208 49.4979 56.0574 49.464 57.0988V57.1474L47.8109 81.2836ZM76.7709 81.9694H75.3527C74.7911 81.9694 74.2349 81.8587 73.716 81.6437C73.1972 81.4287 72.7257 81.1136 72.3287 80.7163C71.9316 80.3191 71.6167 79.8475 71.402 79.3285C71.1872 78.8095 71.0768 78.2533 71.0771 77.6917H56.233V74.8321H79.4929C81.3826 74.8298 83.1942 74.0783 84.5306 72.7423C85.867 71.4063 86.619 69.5949 86.6218 67.7053V45.3365C86.6112 44.8328 86.5562 44.7269 85.9445 44.7015H76.2883C74.3983 44.7038 72.5863 45.4556 71.2499 46.792C69.9135 48.1284 69.1617 49.9404 69.1594 51.8304V63.5228H58.9889V60.6632H66.2998V51.8304C66.2998 49.1813 67.3522 46.6407 69.2254 44.7675C71.0986 42.8943 73.6392 41.8419 76.2883 41.8419H86.0037C88.1648 41.9329 89.4412 43.2283 89.4814 45.309V67.7053C89.4771 70.2906 88.4717 72.7737 86.6761 74.6337C84.8804 76.4937 82.4342 77.5858 79.8506 77.6811H81.0487C81.05 78.2437 80.9404 78.8011 80.7261 79.3213C80.5117 79.8416 80.1968 80.3144 79.7995 80.7127C79.4021 81.1111 78.9301 81.4271 78.4104 81.6428C77.8907 81.8584 77.3336 81.9694 76.7709 81.9694ZM73.9282 79.1098H78.1891V77.6917H73.9282V79.1098ZM14.662 81.9694H13.2269C12.6653 81.9694 12.1091 81.8587 11.5902 81.6437C11.0713 81.4287 10.5999 81.1136 10.2028 80.7163C9.80579 80.3191 9.49089 79.8475 9.27615 79.3285C9.0614 78.8095 8.95101 78.2533 8.95129 77.6917H10.1472C7.56203 77.5963 5.11445 76.5026 3.31887 74.6403C1.5233 72.778 0.519537 70.2922 0.518555 67.7053V45.3365C0.558771 43.2199 1.83511 41.933 3.93483 41.8441H13.7116C16.3606 41.8452 18.9009 42.8974 20.7748 44.7697C22.6487 46.642 23.7031 49.1814 23.7065 51.8304V60.6632H31.0174V63.5228H20.8384V51.8304C20.8387 50.8943 20.6545 49.9674 20.2965 49.1025C19.9385 48.2376 19.4136 47.4517 18.7518 46.7897C18.09 46.1277 17.3042 45.6025 16.4394 45.2442C15.5746 44.8859 14.6477 44.7015 13.7116 44.7015H3.9941C3.44377 44.7269 3.38662 44.8328 3.37815 45.364V67.7053C3.37815 68.6412 3.56249 69.5679 3.92064 70.4326C4.2788 71.2972 4.80375 72.0829 5.46553 72.7447C6.12731 73.4065 6.91296 73.9314 7.77762 74.2896C8.64228 74.6477 9.56901 74.8321 10.5049 74.8321H33.7648V77.6917H18.9313C18.9313 78.8262 18.4806 79.9142 17.6784 80.7165C16.8761 81.5187 15.7881 81.9694 14.6536 81.9694H14.662ZM11.8109 79.1098H16.0717V77.6917H11.8109V79.1098ZM59.9647 53.1449C59.7439 53.1454 59.524 53.1169 59.3106 53.0602L59.2408 53.0411L46.397 48.9391C46.0639 48.8374 45.758 48.6624 45.5015 48.4269C45.2451 48.1913 45.0448 47.9013 44.9153 47.5781C44.1745 45.8318 45.2265 43.1204 45.6942 42.2229C45.9821 41.6747 46.7018 40.7984 48.2998 41.0969L48.6702 41.1858V33.9892H40.7032V40.7519C41.2144 40.6747 41.7355 40.6934 42.2399 40.8069C44.4433 41.3763 44.765 45.2519 44.5682 46.4181C44.2634 48.1792 42.0494 48.9581 41.3763 49.1444L30.2385 52.7702C29.25 53.0327 28.0774 52.6919 27.0169 51.8389C26.5936 51.5002 25.2347 50.2789 25.3003 48.7486C25.6982 44.0496 28.8351 30.9687 31.0915 28.0223C32.9224 25.6347 39.4184 25.0992 43.0103 24.987C42.7987 24.9405 42.5764 24.8791 42.3055 24.8008L42.1996 24.7669C39.8713 23.9054 37.8647 22.047 37.0668 20.0298C36.1989 17.8328 36.4487 13.0555 36.8742 11.1865C37.7547 7.30878 41.4863 5.10534 46.1578 5.71494C50.8292 6.32454 53.8666 9.41273 53.7227 13.3963C53.6528 15.3013 52.6644 19.9917 51.2589 21.8925C50.154 23.3869 48.2152 24.5383 46.1303 24.9849C49.6672 25.0802 56.4172 25.5861 58.2883 28.0287C60.5341 30.956 63.6688 44.1152 64.0668 48.8057C64.1239 50.1265 63.182 51.4685 62.2253 52.241C61.4887 52.8358 60.7076 53.1449 59.9647 53.1449ZM47.5209 46.2975L59.9922 50.2789C60.3774 50.19 61.131 49.3878 61.2114 48.975C60.7627 43.9586 57.6597 31.9106 56.0193 29.7728C55.4181 28.9896 51.4028 27.8297 44.6888 27.8297C37.9748 27.8297 33.9595 28.9896 33.3584 29.7728C31.7116 31.9191 28.6129 43.8591 28.1599 48.8396C28.289 49.2523 29.1336 49.9741 29.5273 50.0059L40.5338 46.4181C40.9753 46.2947 41.391 46.0933 41.7615 45.8234C41.7801 45.0533 41.6358 44.288 41.3382 43.5776C41.1721 43.5842 41.0066 43.6018 40.8429 43.6305L31.9932 46.2382L31.1846 43.4866L32.4842 43.1035L33.7542 34.8316L36.5799 35.2655L35.5216 42.2102L37.8499 41.5117V33.6166C37.8505 32.9598 38.1115 32.33 38.5758 31.8654C39.04 31.4007 39.6696 31.1392 40.3264 31.138H49.0639C49.7208 31.1392 50.3503 31.4007 50.8146 31.8654C51.2788 32.33 51.5399 32.9598 51.5404 33.6166V41.8716L54.3725 42.5552L52.9459 35.0877L55.7547 34.5522L57.4247 43.2897L58.809 43.622L58.1401 46.4033L48.0416 43.9734C47.6606 44.8582 47.4786 45.8445 47.5209 46.2975ZM47.2373 46.2065H47.2563H47.2373ZM43.1416 22.0767C43.6937 22.2688 44.2793 22.3458 44.8624 22.3031C46.67 22.1126 48.2892 21.1051 48.9581 20.1992C49.8556 18.9863 50.8017 15.0092 50.8631 13.2989C50.9732 10.306 48.3125 8.8878 45.7831 8.55548C43.2537 8.22317 40.3201 8.9132 39.6554 11.8321C39.2766 13.5021 39.1665 17.5872 39.721 18.9906C40.1401 20.0362 41.444 21.429 43.1416 22.0745V22.0767ZM80.221 41.0948H77.3509V34.3934C77.3481 34.3658 77.3358 34.3399 77.3161 34.3202C77.2965 34.3005 77.2706 34.2883 77.2429 34.2855H62.8243V31.4259H77.2429C78.0288 31.4259 78.7826 31.7381 79.3383 32.2938C79.894 32.8496 80.2062 33.6033 80.2062 34.3892L80.221 41.0948ZM12.6597 41.0948H9.78737V34.3934C9.78737 33.6075 10.0996 32.8538 10.6553 32.2981C11.211 31.7423 11.9648 31.4301 12.7507 31.4301H27.1693V34.2897H12.7549C12.7273 34.2922 12.7015 34.3044 12.6821 34.3242C12.6627 34.344 12.651 34.37 12.6491 34.3977L12.6597 41.0948Z" fill="#374612"/>
</svg>
