<svg width="90" height="90" viewBox="0 0 90 90" fill="none" xmlns="http://www.w3.org/2000/svg">
<path d="M41.9478 77.7636C41.4987 77.7636 41.068 77.5852 40.7504 77.2676C40.4329 76.9501 40.2545 76.5194 40.2545 76.0703V33.7775C40.2545 33.3284 40.4329 32.8977 40.7504 32.5801C41.068 32.2625 41.4987 32.0841 41.9478 32.0841C42.3969 32.0841 42.8276 32.2625 43.1451 32.5801C43.4627 32.8977 43.6411 33.3284 43.6411 33.7775V76.0703C43.6411 76.5194 43.4627 76.9501 43.1451 77.2676C42.8276 77.5852 42.3969 77.7636 41.9478 77.7636Z" fill="#374612"/>
<path d="M41.9477 49.682C41.7251 49.6819 41.5047 49.6379 41.2991 49.5526C41.0936 49.4672 40.9068 49.3422 40.7496 49.1846L31.502 39.9369C31.1978 39.6168 31.0308 39.1905 31.0364 38.7489C31.0421 38.3074 31.22 37.8855 31.5323 37.5733C31.8445 37.261 32.2664 37.0831 32.7079 37.0774C33.1495 37.0718 33.5758 37.2388 33.8959 37.543L43.1436 46.7907C43.3805 47.0273 43.542 47.329 43.6075 47.6574C43.673 47.9859 43.6397 48.3264 43.5116 48.6359C43.3836 48.9454 43.1667 49.21 42.8883 49.3962C42.6099 49.5824 42.2826 49.6818 41.9477 49.682Z" fill="#374612"/>
<path d="M47.2013 77.48C46.7522 77.48 46.3215 77.3016 46.004 76.9841C45.6864 76.6665 45.508 76.2358 45.508 75.7867V52.7808C45.507 52.4921 45.5799 52.2079 45.7197 51.9553L52.2029 40.3391C52.4219 39.9462 52.788 39.6563 53.2206 39.5332C53.6533 39.4102 54.1171 39.464 54.5101 39.683C54.9031 39.9019 55.1929 40.268 55.316 40.7007C55.4391 41.1333 55.3852 41.5972 55.1663 41.9901L48.8946 53.2211V75.7867C48.8946 76.2358 48.7162 76.6665 48.3987 76.9841C48.0811 77.3016 47.6504 77.48 47.2013 77.48Z" fill="#374612"/>
<path d="M37.6361 55.3187C34.6728 55.3187 30.9687 54.7028 28.5197 52.0929C25.5564 48.9328 24.8875 46.3081 24.805 44.8032C24.0954 44.2706 23.5168 43.5831 23.1133 42.7929C22.7098 42.0028 22.4921 41.131 22.4767 40.2439C22.4132 38.1844 23.535 36.5969 24.7245 35.564C23.7721 33.9511 22.6206 31.2249 23.1476 28.0668C23.9668 23.1668 27.5164 21.1475 30.2109 20.5421C30.3908 18.8255 31.2692 16.7322 33.7415 15.6484C35.1258 15.0452 36.5905 15.2082 37.6425 15.4812C38.7283 14.116 40.9466 12.2364 44.9343 12.2364C50.0143 12.2364 52.1055 15.4728 52.5035 17.183L49.2057 17.9514V17.981C49.1401 17.7397 48.4543 15.623 44.928 15.623C41.2111 15.623 40.0046 17.9916 39.8925 18.2032C39.8073 18.4145 39.6792 18.6057 39.5164 18.7649C39.3535 18.9241 39.1594 19.0478 38.9463 19.1282C38.7266 19.2094 38.4922 19.2434 38.2585 19.2281C38.0247 19.2128 37.7968 19.1485 37.5895 19.0393C37.2107 18.8552 35.9195 18.4043 35.1046 18.7536C33.2144 19.5769 33.5912 21.6089 33.6081 21.6936C33.655 21.9372 33.6477 22.1882 33.5868 22.4287C33.526 22.6692 33.413 22.8935 33.2559 23.0855C33.0988 23.2775 32.9014 23.4327 32.6777 23.54C32.454 23.6473 32.2095 23.7042 31.9614 23.7065C31.4936 23.7192 27.2709 23.9627 26.492 28.615C25.9289 32.0017 28.3461 34.8592 28.3694 34.8888C28.5399 35.0857 28.6626 35.3192 28.7281 35.5713C28.7936 35.8233 28.8001 36.087 28.747 36.342C28.694 36.5969 28.5829 36.8362 28.4223 37.0412C28.2617 37.2462 28.056 37.4115 27.8212 37.524C27.8212 37.524 25.8167 38.5379 25.8654 40.1317C25.8648 40.5804 25.9885 41.0204 26.2227 41.403C26.457 41.7856 26.7927 42.0958 27.1926 42.2992C28.0392 42.6125 28.4626 43.3935 28.1937 44.2444C28.1641 44.5111 28.0498 46.6362 30.9898 49.7667C34.1987 53.183 41.4905 51.5363 41.5625 51.5193C42.0004 51.4172 42.4609 51.4931 42.8428 51.7305C43.2246 51.9679 43.4965 52.3472 43.5987 52.7851C43.7009 53.2229 43.6249 53.6835 43.3876 54.0653C43.1502 54.4472 42.7708 54.7191 42.333 54.8213C40.7895 55.1538 39.215 55.3206 37.6361 55.3187Z" fill="#374612"/>
<path d="M51.0811 55.3208C50.632 55.3208 50.2013 55.1424 49.8837 54.8249C49.5662 54.5073 49.3878 54.0766 49.3878 53.6275C49.3878 53.1784 49.5662 52.7477 49.8837 52.4301C50.2013 52.1126 50.632 51.9342 51.0811 51.9342C56.3283 51.9342 58.3454 48.2152 58.4301 48.0586C58.6115 47.6827 58.9341 47.3936 59.3276 47.2543C59.4376 47.2098 62.3459 46.0012 63.8318 42.2844C65.1589 38.9697 61.622 35.8201 61.586 35.7905C61.3994 35.6285 61.2505 35.4276 61.1498 35.2019C61.0491 34.9762 60.999 34.7313 61.003 34.4842C61.0071 34.2371 61.0651 33.9939 61.1732 33.7716C61.2812 33.5493 61.4366 33.3534 61.6284 33.1976C61.6284 33.1976 63.4296 31.6567 63.4296 29.3241C63.4296 27.779 60.3457 27.4615 60.3139 27.4593C60.0315 27.4377 59.759 27.3456 59.5214 27.1914C59.2838 27.0372 59.0886 26.8258 58.9539 26.5767C58.8191 26.3276 58.749 26.0486 58.7499 25.7653C58.7508 25.4821 58.8228 25.2036 58.9593 24.9553C59.7213 23.5668 59.6662 21.6026 58.8238 20.1759C58.2946 19.2827 57.2173 18.218 55.0858 18.218C51.0811 18.218 50.4292 20.6374 50.3741 20.9147V20.885L47.0404 20.2839C47.3812 18.398 49.5 14.8314 55.0837 14.8314C57.992 14.8314 60.3563 16.1162 61.7363 18.453C62.7878 20.2857 63.127 22.4417 62.6888 24.5087C64.6848 25.1437 66.8142 26.5915 66.8142 29.3241C66.7928 31.197 66.1578 33.0113 65.0065 34.4887C66.4649 36.2434 68.5329 39.6449 66.975 43.5417C65.8748 46.3721 63.7981 48.7154 61.1204 50.1477C60.1869 51.5849 57.1728 55.3208 51.0811 55.3208Z" fill="#374612"/>
<path d="M64.981 77.7636H25.0229C24.5738 77.7636 24.1431 77.5852 23.8255 77.2676C23.508 76.9501 23.3296 76.5194 23.3296 76.0703C23.3296 75.6212 23.508 75.1905 23.8255 74.8729C24.1431 74.5554 24.5738 74.377 25.0229 74.377H64.981C65.4301 74.377 65.8608 74.5554 66.1784 74.8729C66.4959 75.1905 66.6743 75.6212 66.6743 76.0703C66.6743 76.5194 66.4959 76.9501 66.1784 77.2676C65.8608 77.5852 65.4301 77.7636 64.981 77.7636Z" fill="#374612"/>
</svg>
