<svg width="154" height="25" viewBox="0 0 154 25" fill="none" xmlns="http://www.w3.org/2000/svg">
<path d="M0.773438 23.9999H17.3724V19.3799H5.85544V0.899905H0.773438V23.9999Z" fill="#053B45"/>
<path d="M25.8051 23.9999H43.3941V19.4789H30.8541V14.6279H41.7441V10.1069H30.8541V5.42091H43.2291V0.899905H25.8051V23.9999Z" fill="#053B45"/>
<path d="M52.5125 23.9999H57.5945V16.6079H61.5215H61.5875L66.5375 23.9999H72.4775L66.8345 15.7499C69.7715 14.6609 71.7845 12.3179 71.7845 8.58891V8.52291C71.7845 6.34491 71.0915 4.52991 69.8045 3.24291C68.2865 1.72491 66.0095 0.899905 63.0725 0.899905H52.5125V23.9999ZM57.5945 12.1199V5.48691H62.6435C65.1185 5.48691 66.6365 6.60891 66.6365 8.78691V8.85291C66.6365 10.7999 65.2175 12.1199 62.7425 12.1199H57.5945Z" fill="#053B45"/>
<path d="M91.7842 24.3959C96.2392 24.3959 98.8792 22.8119 101.255 20.2709L98.0212 17.0039C96.2062 18.6539 94.5892 19.7099 91.9492 19.7099C87.9892 19.7099 85.2502 16.4099 85.2502 12.4499V12.3839C85.2502 8.42391 88.0552 5.18991 91.9492 5.18991C94.2592 5.18991 96.0742 6.17991 97.8562 7.79691L101.09 4.06791C98.9452 1.9559 96.3382 0.503906 91.9822 0.503906C84.8872 0.503906 79.9372 5.88291 79.9372 12.4499V12.5159C79.9372 19.1489 84.9862 24.3959 91.7842 24.3959Z" fill="#053B45"/>
<path d="M109.923 23.9999H127.512V19.4789H114.972V14.6279H125.862V10.1069H114.972V5.42091H127.347V0.899905H109.923V23.9999Z" fill="#053B45"/>
<path d="M144.848 24.3299C149.831 24.3299 153.329 21.7559 153.329 17.1689V17.1029C153.329 13.0769 150.689 11.3939 146.003 10.1729C142.01 9.14991 141.02 8.65491 141.02 7.13691V7.07091C141.02 5.9489 142.043 5.05791 143.99 5.05791C145.937 5.05791 147.95 5.91591 149.996 7.33491L152.636 3.5069C150.293 1.62591 147.422 0.569905 144.056 0.569905C139.337 0.569905 135.971 3.34191 135.971 7.53291V7.59891C135.971 12.1859 138.974 13.4729 143.627 14.6609C147.488 15.6509 148.28 16.3109 148.28 17.5979V17.6639C148.28 19.0169 147.026 19.8419 144.947 19.8419C142.307 19.8419 140.129 18.7529 138.05 17.0369L135.047 20.6339C137.819 23.1089 141.35 24.3299 144.848 24.3299Z" fill="#053B45"/>
</svg>
