<svg width="14" height="15" viewBox="0 0 14 15" fill="none" xmlns="http://www.w3.org/2000/svg">
<path fill-rule="evenodd" clip-rule="evenodd" d="M2.75474 0.017907C3.60787 -0.143249 4.16697 0.818738 4.59248 1.48245C5.00668 2.12707 5.51629 2.88337 5.31061 3.72237C5.1961 4.19311 4.7706 4.44969 4.44899 4.72747C4.13163 5.00172 3.64816 5.25335 3.53083 5.67462C3.33928 6.35811 3.75843 7.07554 4.01783 7.48409C4.60732 8.4072 5.3198 9.23913 6.22948 9.982C6.66983 10.3425 7.28123 10.8238 7.89405 10.7001C8.80939 10.5149 9.05112 9.38615 10.0477 9.23559C10.9963 9.09211 11.6381 9.77985 12.1739 10.2407C12.6898 10.6867 13.5225 11.2578 13.4659 12.0219C13.4327 12.4608 13.0807 12.733 12.7754 12.998C12.4651 13.2687 12.193 13.5727 11.8862 13.7727C11.1433 14.2576 10.2322 14.4951 9.18612 14.4626C8.16052 14.4307 7.34343 14.0823 6.60197 13.6872C5.15228 12.9139 4.00652 11.8261 2.9272 10.6139C1.86555 9.4222 0.885187 8.01138 0.343053 6.45142C-0.333377 4.50341 0.0242758 2.50239 1.11915 1.25414C1.30433 1.04209 1.59696 0.820859 1.86484 0.593262C2.13202 0.364958 2.37941 0.0885894 2.75474 0.017907Z" fill="white"/>
</svg>
